<?xml version="1.0" encoding="utf-8"?>
<!-- Generator: Adobe Illustrator 16.0.0, SVG Export Plug-In . SVG Version: 6.00 Build 0)  -->
<!DOCTYPE svg PUBLIC "-//W3C//DTD SVG 1.1//EN" "http://www.w3.org/Graphics/SVG/1.1/DTD/svg11.dtd">
<svg version="1.1" id="Layer_1" xmlns="http://www.w3.org/2000/svg" xmlns:xlink="http://www.w3.org/1999/xlink" x="0px" y="0px"
	 width="7px" height="13px" viewBox="0.5 0.5 7 13" enable-background="new 0.5 0.5 7 13" xml:space="preserve">
<title>chevron-right</title>
<g id="Page-1" opacity="0.7">
	<g id="Homepage" transform="translate(-21.000000, -353.000000)">
		
			<g id="Group-7-Copy" transform="translate(25.000000, 360.000000) scale(-1, 1) translate(-25.000000, -360.000000) translate(0.000000, 335.000000)">
			<g id="chevron-right" transform="translate(22.000000, 19.000000)">
				<g id="Path">
					<path fill="#FFFFFF" d="M0,12.5c0.128,0,0.256-0.049,0.354-0.146l6-6c0.195-0.195,0.195-0.512,0-0.707l-6-6
						c-0.195-0.195-0.512-0.195-0.707,0s-0.195,0.512,0,0.707L5.293,6l-5.646,5.646c-0.195,0.195-0.195,0.512,0,0.707
						C-0.256,12.451-0.128,12.5,0,12.5z"/>
				</g>
			</g>
		</g>
	</g>
</g>
</svg>
